<svg width="8" height="10" viewBox="0 0 8 10" fill="none" xmlns="http://www.w3.org/2000/svg">
<path d="M0.960474 0.0260429C0.616724 0.110027 0.337427 0.406902 0.27102 0.758465C0.241724 0.912762 0.243677 9.27799 0.272974 9.41667C0.306177 9.56706 0.37063 9.68424 0.481958 9.78776C0.649927 9.94401 0.843286 10.0124 1.06399 9.99284C1.32766 9.96745 1.28079 10.0085 2.56594 8.72721C3.37454 7.92253 3.76125 7.54948 3.81008 7.528C3.90383 7.49089 4.09915 7.49089 4.1929 7.528C4.24172 7.54948 4.62844 7.92253 5.43704 8.72721C6.72219 10.0085 6.67532 9.96745 6.93899 9.99284C7.30618 10.026 7.64211 9.78776 7.72415 9.43424C7.74563 9.3444 7.75149 8.54362 7.75149 5.0944C7.75149 2.31315 7.74563 0.826824 7.73196 0.758465C7.6636 0.39909 7.36672 0.0944023 7.01321 0.0201836C6.855 -0.0130196 1.09719 -0.00716019 0.960474 0.0260429ZM7.01711 0.651043C7.05813 0.682293 7.10891 0.74284 7.12844 0.787762C7.1636 0.865887 7.16555 1.00846 7.16555 5.09245V9.31706L7.11672 9.36393C7.08547 9.39518 7.04836 9.41276 7.0054 9.41276C6.94875 9.41276 6.83938 9.3112 5.76907 8.24284C4.51711 6.99479 4.53665 7.01237 4.27297 6.94206C4.03079 6.8776 3.6929 6.92057 3.47415 7.04362C3.42141 7.07487 2.94094 7.53776 2.24368 8.23112C1.61477 8.85807 1.08157 9.37956 1.05813 9.39128C0.991724 9.42448 0.937036 9.41667 0.886255 9.36393L0.837427 9.31706V5.09635C0.837427 0.504559 0.829614 0.80534 0.940942 0.684246C1.03665 0.58073 0.880395 0.58659 4.02297 0.590496L6.94485 0.594402L7.01711 0.651043Z" fill="#929090"/>
<path d="M0.923678 0.382812H7.46214V8.84435L7.07752 9.61358L5.53906 8.45974L3.61599 6.92127L3.76293 7.03883L3.61599 7.30589L1.30829 9.61358H0.539062V1.92127L0.923678 0.382812Z" fill="#929090"/>
</svg>
