<svg width="11" height="13" viewBox="0 0 11 13" fill="none" xmlns="http://www.w3.org/2000/svg">
<path d="M1.54862 0.0350281C1.10174 0.144208 0.738655 0.530145 0.652327 0.987176C0.614241 1.18776 0.61678 12.0626 0.654866 12.2428C0.69803 12.4383 0.781819 12.5907 0.926545 12.7253C1.1449 12.9284 1.39627 13.0173 1.68319 12.9919C2.02596 12.9589 1.96502 13.0122 3.63572 11.3465C4.6869 10.3005 5.18963 9.8155 5.25311 9.78757C5.37498 9.73932 5.62889 9.73932 5.75076 9.78757C5.81424 9.8155 6.31697 10.3005 7.36815 11.3465C9.03885 13.0122 8.97791 12.9589 9.32069 12.9919C9.79803 13.035 10.2347 12.7253 10.3414 12.2657C10.3693 12.1489 10.3769 11.1079 10.3769 6.62389C10.3769 3.00827 10.3693 1.07604 10.3515 0.987176C10.2627 0.519989 9.87674 0.123895 9.41717 0.0274109C9.21151 -0.0157531 1.72635 -0.00813594 1.54862 0.0350281ZM9.42225 0.847528C9.47557 0.888153 9.54158 0.966864 9.56697 1.02526C9.61268 1.12682 9.61522 1.31218 9.61522 6.62135V12.1133L9.55174 12.1743C9.51112 12.2149 9.46287 12.2378 9.40701 12.2378C9.33338 12.2378 9.19119 12.1057 7.79979 10.7169C6.17225 9.0944 6.19764 9.11725 5.85487 9.02585C5.54002 8.94206 5.10076 8.99792 4.81639 9.15788C4.74783 9.1985 4.12323 9.80026 3.21678 10.7016C2.3992 11.5167 1.70604 12.1946 1.67557 12.2098C1.58924 12.253 1.51815 12.2428 1.45213 12.1743L1.38865 12.1133V6.62643C1.38865 0.657098 1.3785 1.04811 1.52323 0.890692C1.64764 0.756122 1.44451 0.763739 5.52987 0.768817L9.3283 0.773895L9.42225 0.847528Z" fill="#232323"/>
<path d="M1.5 0.5H10V11.5L9.5 12.5L7.5 11L5 9L5.19103 9.15282L5 9.5L2 12.5H1V2.5L1.5 0.5Z" fill="#232323"/>
</svg>
