<svg viewBox="0 0 13 14" fill="none" xmlns="http://www.w3.org/2000/svg">
<g clip-path="url(#clip0_15_17822)">
<path d="M2.54862 0.469415C2.10174 0.577831 1.73865 0.96107 1.65233 1.4149C1.61424 1.61409 1.61678 12.4128 1.65487 12.5919C1.69803 12.786 1.78182 12.9373 1.92655 13.0709C2.1449 13.2726 2.39627 13.3609 2.68319 13.3356C3.02596 13.3029 2.96502 13.3558 4.63572 11.7018C5.6869 10.6631 6.18963 10.1815 6.25311 10.1538C6.37498 10.1058 6.62889 10.1058 6.75076 10.1538C6.81424 10.1815 7.31697 10.6631 8.36815 11.7018C10.0388 13.3558 9.97791 13.3029 10.3207 13.3356C10.798 13.3785 11.2347 13.0709 11.3414 12.6145C11.3693 12.4986 11.3769 11.4648 11.3769 7.0122C11.3769 3.42186 11.3693 1.50315 11.3515 1.4149C11.2627 0.950984 10.8767 0.557661 10.4172 0.461851C10.2115 0.418989 2.72635 0.426553 2.54862 0.469415ZM10.4222 1.27623C10.4756 1.31657 10.5416 1.39473 10.567 1.45272C10.6127 1.55358 10.6152 1.73763 10.6152 7.00968V12.4633L10.5517 12.5238C10.5111 12.5641 10.4629 12.5868 10.407 12.5868C10.3334 12.5868 10.1912 12.4557 8.79979 11.0766C7.17225 9.46544 7.19764 9.48813 6.85487 9.39736C6.54002 9.31416 6.10076 9.36963 5.81639 9.52847C5.74783 9.56881 5.12322 10.1664 4.21678 11.0614C3.3992 11.8708 2.70604 12.544 2.67557 12.5591C2.58924 12.6019 2.51815 12.5919 2.45213 12.5238L2.38865 12.4633V7.01473C2.38865 1.08713 2.3785 1.47542 2.52323 1.3191C2.64764 1.18547 2.44451 1.19303 6.52987 1.19807L10.3283 1.20312L10.4222 1.27623Z" fill="#232323"/>
</g>
</svg>
