<svg viewBox="0 0 16 17" fill="none" xmlns="http://www.w3.org/2000/svg">
<path d="M13.3333 6.62305H7.33333C6.59695 6.62305 6 7.21583 6 7.94706V13.9051C6 14.6363 6.59695 15.2291 7.33333 15.2291H13.3333C14.0697 15.2291 14.6667 14.6363 14.6667 13.9051V7.94706C14.6667 7.21583 14.0697 6.62305 13.3333 6.62305Z" stroke="#232323" stroke-width="0.842105" stroke-linecap="round" stroke-linejoin="round"/>
<path d="M3.33203 10.5943H2.66536C2.31174 10.5943 1.9726 10.4548 1.72256 10.2065C1.47251 9.95825 1.33203 9.62148 1.33203 9.27033V3.31229C1.33203 2.96114 1.47251 2.62437 1.72256 2.37607C1.9726 2.12777 2.31174 1.98828 2.66536 1.98828H8.66536C9.01899 1.98828 9.35812 2.12777 9.60817 2.37607C9.85822 2.62437 9.9987 2.96114 9.9987 3.31229V3.9743" stroke="#232323" stroke-width="0.842105" stroke-linecap="round" stroke-linejoin="round"/>
</svg>
