<svg width="20" height="20" viewBox="0 0 20 20" fill="none" xmlns="http://www.w3.org/2000/svg">
<path d="M13.332 17.5V15.8333C13.332 14.9493 12.9808 14.1014 12.3557 13.4763C11.7306 12.8512 10.8828 12.5 9.9987 12.5H4.16536C3.28131 12.5 2.43346 12.8512 1.80834 13.4763C1.18322 14.1014 0.832031 14.9493 0.832031 15.8333V17.5" stroke="#232323" stroke-width="1.05263" stroke-linecap="round" stroke-linejoin="round"/>
<path d="M16.668 6.66797V11.668" stroke="#232323" stroke-width="1.05263" stroke-linecap="round" stroke-linejoin="round"/>
<path d="M19.168 9.16797H14.168" stroke="#232323" stroke-width="1.05263" stroke-linecap="round" stroke-linejoin="round"/>
<path d="M7.08333 9.16667C8.92428 9.16667 10.4167 7.67428 10.4167 5.83333C10.4167 3.99238 8.92428 2.5 7.08333 2.5C5.24238 2.5 3.75 3.99238 3.75 5.83333C3.75 7.67428 5.24238 9.16667 7.08333 9.16667Z" stroke="#232323" stroke-width="1.05263" stroke-linecap="round" stroke-linejoin="round"/>
</svg>
