<svg width="16" height="16" viewBox="0 0 16 16" fill="none" xmlns="http://www.w3.org/2000/svg">
<g clip-path="url(#clip0_8_11139)">
<path d="M0.0958087 15.4843C0.0114337 15.7968 0.330184 16.0843 0.627059 15.9593M0.0958087 15.4843C0.114559 15.4218 0.220809 15.2562 0.336434 15.1156L0.627059 15.9593M0.0958087 15.4843L0.47495 15.5981L0.486058 15.6014L0.542794 15.6184C0.539485 15.6295 0.53647 15.6375 0.534758 15.6419C0.532958 15.6465 0.531671 15.6493 0.53128 15.6502C0.531154 15.6505 0.531088 15.6506 0.531089 15.6506C0.531092 15.6506 0.532278 15.6481 0.535116 15.6429C0.542208 15.6298 0.554173 15.6096 0.571224 15.5833C0.605348 15.5308 0.650522 15.4684 0.696899 15.412L0.699545 15.4087L0.69953 15.4087C0.756275 15.3385 0.811321 15.2703 0.864827 15.2042M0.0958087 15.4843L0.469547 15.5852L0.480897 15.5883L0.546342 15.606C0.549926 15.5927 0.549433 15.5763 0.544816 15.5623C0.540843 15.5502 0.535012 15.5429 0.530084 15.5385C0.525159 15.5341 0.515701 15.5277 0.499684 15.5244C0.485201 15.5215 0.469657 15.5222 0.456253 15.5257C0.453284 15.5265 0.45042 15.5275 0.447696 15.5285C0.447118 15.5288 0.446545 15.529 0.445977 15.5293C0.428824 15.5366 0.416814 15.5432 0.412813 15.5455M0.627059 15.9593C0.730184 15.9187 1.54581 15.2687 2.33018 14.6031L0.627059 15.9593ZM0.864827 15.2042L0.411356 15.5464C0.411344 15.5464 0.411817 15.5462 0.412813 15.5455M0.864827 15.2042C0.786296 15.2664 0.714858 15.3222 0.652058 15.3704C0.651074 15.3712 0.650091 15.3719 0.64911 15.3727C0.611987 15.4012 0.577917 15.427 0.547225 15.4499C0.498041 15.4866 0.460698 15.5135 0.434929 15.531C0.42273 15.5393 0.41565 15.5438 0.412813 15.5455M0.864827 15.2042C2.22018 13.5293 2.58696 13.134 4.52343 11.1886L4.52384 11.1881C4.9603 10.7486 5.35809 10.3453 5.64711 10.0496C5.79144 9.90194 5.9096 9.78013 5.99215 9.69373C6.0331 9.65088 6.06713 9.61481 6.09174 9.58796C6.1035 9.57514 6.11643 9.5608 6.12778 9.54742C6.13269 9.54163 6.14271 9.52971 6.15344 9.51519C6.15812 9.50885 6.16966 9.49304 6.18207 9.4719C6.1881 9.46163 6.19959 9.44128 6.21087 9.41421L6.211 9.41389C6.21814 9.39675 6.24685 9.32781 6.24685 9.23433C6.24685 9.11766 6.20122 9.03188 6.19645 9.0229C6.19627 9.02257 6.19615 9.02235 6.19609 9.02223C6.18345 8.99726 6.17118 8.9786 6.16551 8.97019C6.15325 8.95197 6.14177 8.93756 6.13641 8.93091C6.12411 8.91566 6.11083 8.90054 6.10013 8.8886C6.07739 8.86319 6.04688 8.83045 6.01147 8.79309C5.93977 8.71745 5.83774 8.61205 5.71376 8.48533C5.4653 8.23136 5.12339 7.88632 4.74767 7.5106C4.00925 6.77218 3.67402 6.43679 3.52156 6.25137M0.864827 15.2042C0.886808 15.1868 0.909344 15.1689 0.932402 15.1506C1.24304 14.9031 1.63929 14.5773 2.02824 14.2473L2.02868 14.2469C2.80784 13.5874 3.45661 12.9792 4.96061 11.4846L6.51682 9.93773L6.8468 9.60974L7.17579 9.93872L8.48204 11.245L9.65996 12.4229C9.68006 12.4017 9.70613 12.3719 9.74088 12.3294L9.74201 12.3281C9.96656 12.0557 10.0729 11.7577 10.0729 11.4062C10.0729 11.0543 9.99424 10.8048 9.78795 10.5119L9.68333 10.3672L9.46772 10.0692L9.70718 9.78993L11.6822 7.4868L11.6825 7.48645C12.2261 6.85375 12.7229 6.27495 13.0853 5.8524C13.3895 5.49778 13.5912 5.2622 13.6524 5.19072C13.6612 5.18045 13.6671 5.17357 13.67 5.17021C13.8049 4.99714 13.9987 4.9872 14.034 4.98549C14.1028 4.98217 14.1616 4.99288 14.1951 5.00014C14.2679 5.01592 14.3418 5.04302 14.4062 5.07035L14.4062 5.07028L14.4141 5.07378C14.4141 5.07378 14.4147 5.07404 14.4159 5.07454L14.4213 5.07656C14.4261 5.07826 14.4326 5.08039 14.441 5.08281C14.458 5.08774 14.4799 5.09308 14.5067 5.0983C14.5605 5.10882 14.6251 5.11717 14.6936 5.1219C14.8404 5.13205 14.9538 5.12231 14.9982 5.11133C15.1155 5.07896 15.2442 5.01479 15.3454 4.94079C15.3716 4.92166 15.3935 4.90364 15.4112 4.88752C15.3944 4.86674 15.3733 4.84165 15.3472 4.81176C15.0989 4.5277 14.5711 3.99925 13.4668 2.89363C13.4126 2.83936 13.357 2.7837 13.3 2.7266L13.2998 2.7264C12.6846 2.10967 12.1157 1.54232 11.6953 1.12546C11.4851 0.916946 11.3124 0.746556 11.1899 0.626627C11.1343 0.572167 11.0897 0.528797 11.0569 0.497256C11.0481 0.506195 11.0385 0.516318 11.0284 0.527582C10.9754 0.586558 10.9306 0.650727 10.9075 0.694996C10.7799 0.94423 10.7637 1.27093 10.8499 1.49442L10.851 1.49715L10.9291 1.7034L11.0451 2.00966L10.7965 2.22289L8.46557 4.22266L8.16144 3.86871L8.46529 4.22289L6.13432 6.22578L5.84082 6.47797L5.53866 6.23624L5.43157 6.15057M0.864827 15.2042L3.47122 6.30658M0.412813 15.5455L3.47041 6.30787C3.47043 6.30787 3.47072 6.30744 3.47122 6.30658M3.52156 6.25137C3.51376 6.25875 3.50661 6.26584 3.50012 6.27261C3.49246 6.2806 3.48656 6.28723 3.48212 6.2925C3.48188 6.29386 3.48178 6.2945 3.48175 6.2945C3.48172 6.29449 3.48177 6.29391 3.48186 6.29281C3.47589 6.29991 3.47261 6.30451 3.47122 6.30658M3.52156 6.25137C3.52144 6.25122 3.52132 6.25108 3.5212 6.25094C3.4768 6.19691 3.4643 6.17426 3.4641 6.17438C3.46394 6.17446 3.47068 6.1873 3.47608 6.20928C3.47971 6.22408 3.48149 6.23874 3.48227 6.25161C3.48295 6.2627 3.48288 6.27247 3.48262 6.27987C3.47775 6.29454 3.47305 6.30344 3.47122 6.30658M3.52156 6.25137C3.56136 6.2137 3.61803 6.16856 3.69025 6.12103C3.86619 6.00524 4.07914 5.91114 4.25013 5.87561L4.25297 5.87502C4.63954 5.79218 5.11036 5.90076 5.43157 6.15057M5.43157 6.15057L5.42928 6.14874L5.72081 5.78433L5.43356 6.15212C5.4329 6.1516 5.43224 6.15108 5.43157 6.15057ZM15.4629 4.83166C15.4629 4.83162 15.4626 4.83203 15.4621 4.83289L15.4629 4.83166ZM11.0027 0.446006C11.0029 0.446235 11.0042 0.447412 11.0063 0.44928C11.0035 0.446712 11.0024 0.445745 11.0027 0.446006Z" stroke="#232323" stroke-width="0.933333"/>
</g>
<defs>
<clipPath id="clip0_8_11139">
<rect width="16" height="16" fill="white"/>
</clipPath>
</defs>
</svg>
